<svg width="77" height="33" viewBox="0 0 77 33" fill="none" xmlns="http://www.w3.org/2000/svg">
<path d="M7.07129 14.0013C7.07129 12.3767 8.38828 11.0597 10.0129 11.0597H12.9545V14.0013C12.9545 15.6258 11.6375 16.9428 10.0129 16.9428H7.07129V14.0013Z" fill="white"/>
<path d="M7.07129 23.1202C7.07129 21.4956 8.38828 20.1786 10.0129 20.1786H12.9545V23.1202C12.9545 24.7448 11.6375 26.0618 10.0129 26.0618H7.07129V23.1202Z" fill="white"/>
<path d="M13.2486 17.5312C13.2486 15.5816 14.829 14.0013 16.7785 14.0013H25.015V16.3545C25.015 18.304 23.4346 19.8844 21.4851 19.8844H13.2486V17.5312Z" fill="white"/>
<path d="M13.2486 8.41223C13.2486 6.46272 14.829 4.88232 16.7785 4.88232H27.9566V7.2356C27.9566 9.18511 26.3762 10.7655 24.4267 10.7655H13.2486V8.41223Z" fill="white"/>
<path d="M33.4382 23.0685V16.1266H31.936V13.9906H33.4382V12.6556C33.4382 11.9792 33.6385 11.4393 34.0391 11.0359C34.4396 10.6324 34.9757 10.4307 35.6473 10.4307H37.3261V12.3886H36.2658C36.0891 12.3886 35.9418 12.448 35.824 12.5666C35.7062 12.6853 35.6473 12.8336 35.6473 13.0116V13.9906H40.6839V23.0685H38.4748V16.1266H35.6473V23.0685H33.4382ZM38.3865 12.5666V10.4307H40.7723V12.5666H38.3865Z" fill="white"/>
<path d="M48.1959 19.5654H50.4307C50.3472 19.974 50.2102 20.3707 50.0195 20.7553C49.8407 21.1399 49.5904 21.5245 49.2686 21.9091C48.9468 22.2817 48.5118 22.5882 47.9635 22.8286C47.4272 23.057 46.8193 23.1712 46.14 23.1712C44.7932 23.1712 43.6788 22.7265 42.7968 21.837C41.9267 20.9356 41.4917 19.7877 41.4917 18.3935C41.4917 16.9992 41.9267 15.8573 42.7968 14.9679C43.6788 14.0665 44.7932 13.6157 46.14 13.6157C46.8193 13.6157 47.4272 13.7359 47.9635 13.9763C48.5118 14.2047 48.9468 14.5052 49.2686 14.8778C49.5904 15.2504 49.8407 15.623 50.0195 15.9956C50.2102 16.3682 50.3472 16.7468 50.4307 17.1314H48.1959C47.8384 16.1699 47.1531 15.6891 46.14 15.6891C45.4606 15.6891 44.8885 15.9415 44.4237 16.4463C43.9589 16.9511 43.7264 17.6002 43.7264 18.3935C43.7264 19.1867 43.9589 19.8358 44.4237 20.3406C44.8885 20.8454 45.4606 21.0978 46.14 21.0978C47.1888 21.0978 47.8741 20.587 48.1959 19.5654Z" fill="white"/>
<path d="M51.2523 19.3477V13.9238H53.5204V19.1698C53.5204 19.7508 53.7018 20.225 54.0647 20.5925C54.4397 20.9482 54.9236 21.126 55.5163 21.126C56.109 21.126 56.5868 20.9482 56.9497 20.5925C57.3247 20.225 57.5122 19.7508 57.5122 19.1698V13.9238H59.7803V22.9932H57.6937L57.5122 22.1041H57.4215C57.2763 22.2819 57.0707 22.4597 56.8046 22.6376C56.2481 22.9932 55.607 23.171 54.8813 23.171C53.8289 23.171 52.9579 22.8213 52.2684 22.1218C51.591 21.4105 51.2523 20.4858 51.2523 19.3477Z" fill="white"/>
<path d="M60.6023 20.1964H62.732C62.732 20.4728 62.8858 20.7372 63.1934 20.9897C63.5128 21.2421 63.9506 21.3683 64.5067 21.3683C65.6307 21.3683 66.1927 21.0377 66.1927 20.3767C66.1927 20.0882 66.1039 19.8658 65.9265 19.7096C65.749 19.5413 65.4236 19.4211 64.9504 19.349L63.5306 19.1146C61.5784 18.7901 60.6023 17.9187 60.6023 16.5004C60.6023 15.6951 60.9395 15.016 61.6139 14.4631C62.2883 13.8982 63.223 13.6157 64.4179 13.6157C65.6129 13.6157 66.5476 13.9463 67.222 14.6073C67.8964 15.2684 68.2336 15.9295 68.2336 16.5905H66.1039C66.1039 16.2901 65.9501 16.0196 65.6425 15.7792C65.3349 15.5388 64.9267 15.4186 64.4179 15.4186C63.9092 15.4186 63.5128 15.5268 63.2289 15.7432C62.9568 15.9475 62.8207 16.1999 62.8207 16.5004C62.8207 16.9451 63.2348 17.2276 64.063 17.3478L65.5715 17.5821C67.4645 17.8706 68.4111 18.8021 68.4111 20.3767C68.4111 21.182 68.0739 21.849 67.3995 22.3779C66.7369 22.9068 65.7726 23.1712 64.5067 23.1712C63.8678 23.1712 63.2999 23.087 62.8029 22.9188C62.3179 22.7505 61.9392 22.5522 61.6671 22.3238C61.4068 22.0834 61.188 21.813 61.0105 21.5125C60.8448 21.212 60.7324 20.9596 60.6733 20.7553C60.626 20.5389 60.6023 20.3526 60.6023 20.1964Z" fill="white"/>
</svg>
